<svg width="127" height="65" viewBox="0 0 127 65" fill="none" xmlns="http://www.w3.org/2000/svg">
<g clip-path="url(#clip0_1_24)">
<path d="M22.3238 15.6941C18.6283 12.7338 15.4117 7.89479 15.1701 0C15.1701 0 34.8515 0.736174 29.2706 22.2311C23.6887 43.7269 0 22.2311 0 22.2311C0 22.2311 26.1873 10.4723 31.6211 28.5615C35.734 42.2537 35.5868 50.7927 35.5868 50.7927C35.5868 50.7927 35.3824 34.1228 33.529 26.524C33.0934 24.7383 34.2331 22.9491 36.038 22.6218C42.0321 21.534 53.1264 19.138 54.8283 16.0466L38.1608 19.4349C32.5902 20.5669 26.765 19.25 22.3247 15.6932L22.3238 15.6941Z" fill="url(#paint0_linear_1_24)"/>
<path d="M27.7374 16.2279C27.7374 16.2279 17.7906 12.5349 18.0357 3.05664C18.0357 3.05664 28.7195 4.16438 27.7374 16.2279Z" fill="#2A333A"/>
<path d="M25.9431 23.7637C25.9431 23.7637 19.9387 18.6895 7.67773 23.0076C7.67773 23.0076 10.9506 26.0226 17.0218 28.1634C20.6056 29.4274 24.58 27.574 25.8652 23.9894C25.8921 23.9148 25.918 23.8393 25.9431 23.7629V23.7637Z" fill="#2A333A"/>
<path d="M83.8236 49.5992V32.8252H85.8121V47.6972H92.1327V49.5992H83.8228H83.8236Z" fill="url(#paint1_linear_1_24)"/>
<path d="M93.9838 34.0625C93.9838 33.7031 94.1111 33.3958 94.3666 33.1406C94.6221 32.8845 94.9321 32.7568 95.2985 32.7568C95.6648 32.7568 95.9636 32.8871 96.2182 33.1466C96.4737 33.4062 96.601 33.7196 96.601 34.0859C96.601 34.4523 96.4755 34.7501 96.2234 35.0027C95.9714 35.2553 95.6631 35.3812 95.2976 35.3812C94.9321 35.3812 94.6212 35.2553 94.3657 35.0027C94.1102 34.7509 93.9829 34.4375 93.9829 34.0634L93.9838 34.0625ZM94.4064 49.5986V39.115H96.2122V49.5986H94.4064Z" fill="url(#paint2_linear_1_24)"/>
<path d="M99.9852 49.6005V39.1169H101.734V40.7325C102.183 40.0606 102.725 39.5605 103.357 39.2315C103.989 38.9033 104.721 38.7393 105.551 38.7393C106.786 38.7393 107.75 39.0674 108.443 39.7246C109.137 40.3818 109.483 41.2942 109.483 42.4627V49.6005H107.654V43.4246C107.654 42.3628 107.432 41.5737 106.986 41.0589C106.54 40.5432 105.852 40.2854 104.923 40.2854C104.389 40.2854 103.903 40.3826 103.465 40.578C103.027 40.7724 102.663 41.0494 102.374 41.4088C102.153 41.684 101.995 41.9974 101.899 42.3481C101.804 42.6997 101.756 43.3108 101.756 44.1816V49.6013H99.9844L99.9852 49.6005Z" fill="url(#paint3_linear_1_24)"/>
<path d="M113.049 49.6002V31.8408H114.844V43.8714L119.884 39.1166H122.273L117.05 43.9174L122.742 49.6002H120.239L114.845 44.0667V49.6002H113.05H113.049Z" fill="url(#paint4_linear_1_24)"/>
<path d="M51.2744 49.5981H48.794V48.1891C48.3523 48.8159 47.8353 49.2812 47.2455 49.5868C46.6548 49.8924 45.9784 50.0452 45.2163 50.0452C43.6851 50.0452 42.4786 49.52 41.5987 48.4695C40.7188 47.4191 40.2788 45.9815 40.2788 44.1558C40.2788 42.3301 40.7283 41.0218 41.6273 39.9566C42.5263 38.8914 43.6998 38.3584 45.1479 38.3584C46.0321 38.3584 46.7882 38.5433 47.417 38.914C48.0457 39.2847 48.5047 39.8177 48.794 40.5122V38.736H51.2744V49.5972V49.5981ZM48.8624 44.1332C48.8624 43.0107 48.6017 42.1356 48.0795 41.5097C47.5573 40.8838 46.828 40.5704 45.8909 40.5704C44.9539 40.5704 44.2168 40.8933 43.679 41.5384C43.142 42.1843 42.8736 43.0793 42.8736 44.2252C42.8736 45.3712 43.1325 46.2688 43.6504 46.8947C44.1683 47.5207 44.9002 47.8341 45.845 47.8341C46.7362 47.8341 47.4629 47.4946 48.0223 46.814C48.5827 46.1343 48.8624 45.2401 48.8624 44.1332Z" fill="white"/>
<path d="M57.1832 40.4671C57.4499 39.7491 57.8024 39.2178 58.2406 38.8741C58.6789 38.5303 59.2219 38.3584 59.8697 38.3584C60.2205 38.3584 60.5652 38.4001 60.9038 38.4843C61.2424 38.5685 61.5759 38.6909 61.9041 38.8506L61.0129 40.9585C60.7999 40.8057 60.5686 40.6928 60.3218 40.6208C60.0741 40.5487 59.7978 40.5122 59.493 40.5122C58.6702 40.5122 58.0796 40.843 57.721 41.5036C57.3624 42.1643 57.184 43.2738 57.184 44.8321V49.5981H54.7036V38.7135H57.184V40.4662L57.1832 40.4671Z" fill="white"/>
<path d="M65.8022 49.5982H63.3218V38.737H65.6532V40.5132C66.1486 39.7571 66.7107 39.2049 67.3395 38.8577C67.9682 38.5104 68.7087 38.3359 69.5627 38.3359C70.4166 38.3359 71.1095 38.5139 71.6655 38.869C72.2215 39.224 72.6442 39.7649 72.9343 40.4906C73.5059 39.7423 74.113 39.1963 74.7574 38.8525C75.4008 38.5087 76.1344 38.3368 76.958 38.3368C77.6743 38.3368 78.2996 38.4688 78.8322 38.7318C79.3657 38.9957 79.7806 39.3794 80.0785 39.8829C80.2153 40.1199 80.3167 40.403 80.3816 40.7311C80.4466 41.0593 80.4786 41.5298 80.4786 42.1401V49.5991H77.9982V44.0196C77.9982 42.5603 77.844 41.6001 77.5357 41.1383C77.2274 40.6764 76.6766 40.4455 75.8841 40.4455C74.9089 40.4455 74.2135 40.7572 73.7978 41.3796C73.382 42.0021 73.175 43.0924 73.175 44.6507V49.5999H70.6721V44.0205C70.6721 42.6757 70.5102 41.7442 70.1862 41.2251C69.8623 40.7059 69.3037 40.4464 68.5121 40.4464C68.0245 40.4464 67.5785 40.5575 67.1749 40.7789C66.7713 41.0002 66.4509 41.3058 66.2144 41.6956C66.062 41.9474 65.9555 42.2573 65.8949 42.6236C65.8334 42.99 65.8039 43.6663 65.8039 44.6516V49.6008L65.8022 49.5982Z" fill="white"/>
<path d="M124.033 48.4428C124.033 48.1485 124.141 47.8941 124.357 47.6806C124.574 47.467 124.831 47.3594 125.13 47.3594C125.429 47.3594 125.697 47.4627 125.902 47.6684C126.108 47.8742 126.211 48.1329 126.211 48.4428C126.211 48.7527 126.107 49.014 125.898 49.2259C125.69 49.4377 125.434 49.5427 125.129 49.5427C124.824 49.5427 124.572 49.4342 124.357 49.218C124.14 49.001 124.032 48.7432 124.032 48.4437L124.033 48.4428Z" fill="white"/>
<path d="M37.7046 35.33C37.7046 35.33 48.0359 30.5171 54.8458 32.9036C54.8458 32.9036 48.1122 26.107 37.7046 35.33Z" fill="url(#paint5_linear_1_24)"/>
<path d="M35.4248 63.3262C35.3408 63.3262 35.2732 63.3001 35.2221 63.2472C35.171 63.1942 35.145 63.1326 35.145 63.0623V57.4368C35.145 57.3664 35.1701 57.3048 35.2221 57.2518C35.2732 57.1989 35.3382 57.1729 35.4161 57.1729H38.7002C38.7721 57.1729 38.8353 57.198 38.8899 57.2475C38.9436 57.297 38.9713 57.3604 38.9713 57.4368C38.9713 57.5071 38.9445 57.567 38.8899 57.6173C38.8353 57.6668 38.773 57.692 38.7002 57.692H35.6595L35.6958 57.639V59.9769L35.6508 59.8979H38.2949C38.3668 59.8979 38.43 59.9231 38.4846 59.9726C38.5391 60.0221 38.566 60.0854 38.566 60.1618C38.566 60.2321 38.5391 60.2921 38.4846 60.3424C38.4309 60.3919 38.3677 60.4171 38.2949 60.4171H35.6335L35.6967 60.3381V63.0631C35.6967 63.1334 35.6707 63.1951 35.6196 63.248C35.5685 63.301 35.5036 63.327 35.4256 63.327L35.4248 63.3262Z" fill="white"/>
<path d="M40.5585 63.3262C40.4685 63.3262 40.3949 63.3001 40.3377 63.2472C40.2805 63.1942 40.252 63.1326 40.252 63.0623V57.4368C40.252 57.3664 40.2771 57.3048 40.329 57.2518C40.3801 57.1989 40.4451 57.1729 40.523 57.1729H42.9593C43.3023 57.1729 43.6088 57.2449 43.8799 57.3881C44.151 57.5323 44.3623 57.7293 44.5165 57.9811C44.6698 58.2328 44.7469 58.5202 44.7469 58.8423C44.7469 59.1001 44.6984 59.3362 44.6022 59.5498C44.5061 59.7634 44.371 59.9457 44.196 60.095C44.0211 60.2443 43.8262 60.3572 43.6097 60.4336L43.2936 60.3276C43.5162 60.3511 43.7232 60.4231 43.9163 60.5429C44.1086 60.6627 44.2636 60.8268 44.3814 61.0352C44.4983 61.2435 44.5606 61.4909 44.5667 61.7783C44.5728 62.03 44.5858 62.2262 44.6074 62.3669C44.6282 62.5075 44.6602 62.6134 44.7018 62.6829C44.7443 62.7532 44.798 62.8088 44.8646 62.8496C44.9244 62.8852 44.9651 62.9346 44.9868 62.9989C45.0075 63.0631 45.0006 63.1248 44.9642 63.1838C44.94 63.2307 44.9036 63.2645 44.856 63.2845C44.8075 63.3053 44.7598 63.3149 44.7113 63.3149C44.6628 63.3149 44.6178 63.3036 44.5762 63.2793C44.4862 63.2324 44.3987 63.1595 44.3147 63.0597C44.2307 62.9598 44.1597 62.8131 44.1025 62.6204C44.0453 62.4268 44.0168 62.1577 44.0168 61.8121C44.0168 61.5838 43.9795 61.3981 43.9042 61.2539C43.8288 61.1107 43.7327 60.9978 43.6158 60.9154C43.4988 60.8338 43.3689 60.7773 43.2278 60.7487C43.0866 60.7192 42.9524 60.7044 42.8259 60.7044H40.724L40.8236 60.5725V63.0597C40.8236 63.13 40.7993 63.1916 40.7517 63.2446C40.7032 63.2975 40.64 63.3236 40.562 63.3236L40.5585 63.3262ZM40.7205 60.2148H42.9853C43.1897 60.1974 43.3811 60.1332 43.5586 60.0212C43.7362 59.9101 43.8817 59.7529 43.996 59.5507C44.1103 59.3484 44.1675 59.1157 44.1675 58.8518C44.1675 58.5176 44.0514 58.2407 43.8202 58.021C43.5889 57.8014 43.2867 57.6911 42.9134 57.6911H40.7569L40.8201 57.5765V60.3363L40.7205 60.2131V60.2148Z" fill="white"/>
<path d="M46.568 57.1729H49.8703C49.9482 57.1729 50.0149 57.198 50.0686 57.2475C50.1223 57.297 50.15 57.3604 50.15 57.4368C50.15 57.5132 50.1232 57.5748 50.0686 57.6217C50.0149 57.6686 49.9482 57.692 49.8703 57.692H46.7758L46.8659 57.5427V60.0125L46.7663 59.8979H49.4641C49.542 59.8979 49.6087 59.924 49.6624 59.9769C49.7161 60.0299 49.7438 60.0915 49.7438 60.1618C49.7438 60.2382 49.717 60.2999 49.6624 60.3467C49.6087 60.3936 49.542 60.4171 49.4641 60.4171H46.7845L46.8659 60.3294V62.8608L46.8208 62.8079H49.8703C49.9482 62.8079 50.0149 62.8339 50.0686 62.8869C50.1223 62.9399 50.15 63.0015 50.15 63.0718C50.15 63.1482 50.1232 63.2098 50.0686 63.2567C50.0149 63.3036 49.9482 63.327 49.8703 63.327H46.568C46.49 63.327 46.425 63.301 46.374 63.248C46.3229 63.1951 46.2969 63.1334 46.2969 63.0631V57.4376C46.2969 57.3673 46.322 57.3057 46.374 57.2527C46.425 57.1998 46.49 57.1737 46.568 57.1737V57.1729Z" fill="white"/>
<path d="M53.1637 63.4136C52.7064 63.4197 52.3098 63.3503 51.9728 63.207C51.6359 63.0638 51.3146 62.845 51.0072 62.5525C50.9769 62.5229 50.9518 62.4908 50.9301 62.4561C50.9093 62.4205 50.8989 62.3797 50.8989 62.3328C50.8989 62.2625 50.9275 62.1983 50.9847 62.1392C51.0418 62.0811 51.1068 62.0515 51.1787 62.0515C51.2505 62.0515 51.3172 62.0811 51.377 62.1392C51.6117 62.3849 51.8776 62.5733 52.1755 62.7018C52.4734 62.8311 52.7939 62.8954 53.1368 62.8954C53.4252 62.8954 53.6825 62.8511 53.9085 62.7634C54.1346 62.6757 54.313 62.5499 54.4455 62.3858C54.578 62.2217 54.6438 62.0316 54.6438 61.8145C54.6377 61.5454 54.5607 61.3284 54.4134 61.1643C54.2662 61.0002 54.0687 60.8622 53.8228 60.7511C53.5759 60.64 53.3023 60.5427 53.0017 60.4611C52.7549 60.3847 52.5193 60.3014 52.2933 60.2102C52.0681 60.1191 51.8689 60.008 51.6974 59.876C51.526 59.7441 51.3917 59.5817 51.2956 59.3881C51.1994 59.1945 51.1509 58.9636 51.1509 58.6936C51.1509 58.3828 51.235 58.1059 51.4038 57.8628C51.5719 57.6197 51.8109 57.4296 52.1209 57.2916C52.431 57.1535 52.7904 57.085 53.1992 57.085C53.5543 57.085 53.8955 57.144 54.2229 57.2603C54.5503 57.3775 54.811 57.5503 55.0032 57.7786C55.0933 57.8724 55.1383 57.9574 55.1383 58.0338C55.1383 58.0981 55.108 58.158 55.0483 58.2144C54.9876 58.27 54.9218 58.2977 54.8499 58.2977C54.7902 58.2977 54.7382 58.2769 54.6966 58.2361C54.5944 58.1128 54.4654 58.0034 54.3086 57.9062C54.1519 57.8099 53.9795 57.7352 53.7899 57.6822C53.6002 57.6293 53.4036 57.6032 53.1992 57.6032C52.916 57.6032 52.6622 57.6458 52.4371 57.7309C52.2119 57.8159 52.0343 57.9375 51.9044 58.0955C51.7754 58.2535 51.7104 58.4471 51.7104 58.6754C51.7104 58.9219 51.7823 59.1225 51.927 59.2779C52.0716 59.4333 52.2613 59.5617 52.4951 59.6642C52.7298 59.7666 52.9792 59.8621 53.2442 59.9498C53.5023 60.0201 53.7509 60.1009 53.9882 60.1911C54.2255 60.2823 54.436 60.3951 54.6196 60.5297C54.8032 60.6643 54.9469 60.8344 55.0526 61.0393C55.1574 61.2442 55.2102 61.502 55.2102 61.8128C55.2102 62.1236 55.1227 62.3814 54.9487 62.621C54.7737 62.8615 54.5347 63.0516 54.2316 63.1923C53.9276 63.3329 53.5716 63.4058 53.162 63.4119L53.1637 63.4136Z" fill="white"/>
<path d="M56.7816 57.1729C56.8535 57.1729 56.9184 57.1989 56.9756 57.2518C57.0327 57.3048 57.0613 57.369 57.0613 57.4454V63.0527C57.0552 63.1291 57.0241 63.1933 56.9669 63.2463C56.9097 63.2993 56.8448 63.3253 56.7729 63.3253C56.6828 63.3253 56.6135 63.2993 56.565 63.2463C56.5165 63.1933 56.4932 63.1291 56.4932 63.0527V57.4454C56.4932 57.369 56.52 57.3048 56.5746 57.2518C56.6291 57.1989 56.6976 57.1729 56.7824 57.1729H56.7816ZM56.7365 59.924H61.0227L61.0141 60.4422H56.701L56.7374 59.924H56.7365ZM61.0132 57.1729C61.0972 57.1729 61.1647 57.1989 61.2158 57.2518C61.2669 57.3048 61.2929 57.369 61.2929 57.4454V63.0527C61.2869 63.1291 61.2583 63.1933 61.2072 63.2463C61.1561 63.2993 61.0885 63.3253 61.0045 63.3253C60.9266 63.3253 60.8599 63.2993 60.8062 63.2463C60.7525 63.1933 60.7248 63.1291 60.7248 63.0527V57.4454C60.7248 57.369 60.7534 57.3048 60.8105 57.2518C60.8677 57.1989 60.9352 57.1729 61.0132 57.1729Z" fill="white"/>
<path d="M67.4834 63.3262C67.3993 63.3262 67.3318 63.3001 67.2807 63.2472C67.2296 63.1942 67.2036 63.1326 67.2036 63.0623V57.4368C67.2036 57.3664 67.2287 57.3048 67.2807 57.2518C67.3318 57.1989 67.3967 57.1729 67.4747 57.1729H70.7588C70.8307 57.1729 70.8939 57.198 70.9485 57.2475C71.0022 57.297 71.0299 57.3604 71.0299 57.4368C71.0299 57.5071 71.0031 57.567 70.9485 57.6173C70.8939 57.6668 70.8316 57.692 70.7588 57.692H67.7181L67.7544 57.639V59.9769L67.7094 59.8979H70.3535C70.4254 59.8979 70.4886 59.9231 70.5432 59.9726C70.5977 60.0221 70.6246 60.0854 70.6246 60.1618C70.6246 60.2321 70.5977 60.2921 70.5432 60.3424C70.4895 60.3919 70.4263 60.4171 70.3535 60.4171H67.6921L67.7553 60.3381V63.0631C67.7553 63.1334 67.7293 63.1951 67.6782 63.248C67.6271 63.301 67.5622 63.327 67.4842 63.327L67.4834 63.3262Z" fill="white"/>
<path d="M74.1335 57.8585L71.9406 63.1584C71.9163 63.2174 71.8834 63.2608 71.841 63.2904C71.7985 63.3199 71.7509 63.3346 71.6963 63.3346C71.6063 63.3346 71.5396 63.3129 71.498 63.2687C71.4556 63.2244 71.4348 63.1706 71.4348 63.1063C71.4287 63.0768 71.4313 63.0421 71.4434 63.0013L73.8251 57.3237C73.8494 57.2594 73.884 57.2134 73.9291 57.1874C73.9741 57.1613 74.0269 57.1475 74.0867 57.1475C74.1525 57.1475 74.2088 57.164 74.2538 57.1961C74.2989 57.2282 74.3335 57.2707 74.3578 57.3237L76.7308 62.9752C76.7429 63.0108 76.749 63.0455 76.749 63.0803C76.749 63.1627 76.7221 63.2253 76.6676 63.2695C76.613 63.3138 76.5507 63.3355 76.4779 63.3355C76.4182 63.3355 76.3653 63.3199 76.3203 63.2869C76.2752 63.2548 76.2406 63.2122 76.2164 63.1593L73.9698 57.815L74.1326 57.8593L74.1335 57.8585ZM72.4645 61.5498L72.6897 61.0315H75.4871L75.5954 61.5498H72.4645Z" fill="white"/>
<path d="M79.5924 63.4136C79.1351 63.4197 78.7385 63.3503 78.4016 63.207C78.0647 63.0638 77.7434 62.845 77.4359 62.5525C77.4056 62.5229 77.3805 62.4908 77.3588 62.4561C77.338 62.4205 77.3276 62.3797 77.3276 62.3328C77.3276 62.2625 77.3562 62.1983 77.4134 62.1392C77.4705 62.0811 77.5355 62.0515 77.6074 62.0515C77.6793 62.0515 77.746 62.0811 77.8057 62.1392C78.0404 62.3849 78.3063 62.5733 78.6042 62.7018C78.9022 62.8311 79.2226 62.8954 79.5656 62.8954C79.854 62.8954 80.1112 62.8511 80.3372 62.7634C80.5633 62.6757 80.7417 62.5499 80.8742 62.3858C81.0067 62.2217 81.0725 62.0316 81.0725 61.8145C81.0665 61.5454 80.9894 61.3284 80.8421 61.1643C80.6949 61.0002 80.4975 60.8622 80.2515 60.7511C80.0047 60.64 79.731 60.5427 79.4305 60.4611C79.1836 60.3847 78.9481 60.3014 78.722 60.2102C78.4968 60.1191 78.2976 60.008 78.1262 59.876C77.9547 59.7441 77.8204 59.5817 77.7243 59.3881C77.6282 59.1945 77.5797 58.9636 77.5797 58.6936C77.5797 58.3828 77.6637 58.1059 77.8326 57.8628C78.0006 57.6197 78.2396 57.4296 78.5497 57.2916C78.8597 57.1535 79.2191 57.085 79.6279 57.085C79.983 57.085 80.3242 57.144 80.6516 57.2603C80.979 57.3775 81.2397 57.5503 81.4319 57.7786C81.522 57.8724 81.567 57.9574 81.567 58.0338C81.567 58.0981 81.5367 58.158 81.477 58.2144C81.4164 58.27 81.3505 58.2977 81.2786 58.2977C81.2189 58.2977 81.1669 58.2769 81.1254 58.2361C81.0232 58.1128 80.8941 58.0034 80.7374 57.9062C80.5806 57.8099 80.4082 57.7352 80.2186 57.6822C80.0289 57.6293 79.8323 57.6032 79.6279 57.6032C79.3447 57.6032 79.091 57.6458 78.8658 57.7309C78.6406 57.8159 78.4631 57.9375 78.3331 58.0955C78.2041 58.2535 78.1391 58.4471 78.1391 58.6754C78.1391 58.9219 78.211 59.1225 78.3557 59.2779C78.5003 59.4333 78.69 59.5617 78.9238 59.6642C79.1585 59.7666 79.4079 59.8621 79.673 59.9498C79.931 60.0201 80.1796 60.1009 80.4169 60.1911C80.6542 60.2823 80.8647 60.3951 81.0483 60.5297C81.2319 60.6643 81.3756 60.8344 81.4813 61.0393C81.5861 61.2442 81.6389 61.502 81.6389 61.8128C81.6389 62.1236 81.5515 62.3814 81.3774 62.621C81.2024 62.8615 80.9634 63.0516 80.6603 63.1923C80.3563 63.3329 80.0003 63.4058 79.5907 63.4119L79.5924 63.4136Z" fill="white"/>
<path d="M82.6505 57.6738C82.5786 57.6738 82.5154 57.6503 82.4608 57.6034C82.4062 57.5566 82.3794 57.4975 82.3794 57.4281C82.3794 57.3517 82.4062 57.29 82.4608 57.2432C82.5145 57.1963 82.5777 57.1729 82.6505 57.1729H86.9367C87.0146 57.1729 87.0813 57.1963 87.135 57.2432C87.1887 57.29 87.2164 57.3517 87.2164 57.4281C87.2164 57.5045 87.1895 57.5644 87.135 57.6087C87.0813 57.6529 87.0146 57.6746 86.9367 57.6746H82.6505V57.6738ZM84.7983 63.3253C84.7143 63.3253 84.645 63.2993 84.5905 63.2463C84.5359 63.1933 84.5091 63.1317 84.5091 63.0614V57.4628H85.0772V63.0614C85.0772 63.1317 85.0503 63.1933 84.9958 63.2463C84.9412 63.2993 84.8754 63.3253 84.7975 63.3253H84.7983Z" fill="white"/>
<path d="M95.1552 57.1729C95.6004 57.1729 95.9884 57.2553 96.3192 57.4194C96.6501 57.5835 96.9255 57.8109 97.1446 58.1009C97.3637 58.3908 97.5265 58.7207 97.6322 59.0897C97.737 59.4586 97.7898 59.8458 97.7898 60.2495C97.7898 60.8121 97.6954 61.326 97.5057 61.7922C97.3161 62.2584 97.0277 62.6299 96.6397 62.9086C96.2517 63.1873 95.7571 63.3262 95.1552 63.3262H92.8541C92.7761 63.3262 92.7112 63.3001 92.6601 63.2472C92.609 63.1942 92.583 63.1326 92.583 63.0623V57.4368C92.583 57.3664 92.6081 57.3048 92.6601 57.2518C92.7112 57.1989 92.7761 57.1729 92.8541 57.1729H95.1552ZM95.0652 62.807C95.5701 62.807 95.9806 62.6924 96.2967 62.4641C96.6128 62.2358 96.8441 61.9267 96.9913 61.5369C97.1385 61.1472 97.2121 60.7183 97.2121 60.2495C97.2121 59.9153 97.1714 59.5932 97.09 59.2824C97.0086 58.9716 96.8822 58.6982 96.7107 58.4603C96.5392 58.2233 96.3166 58.0358 96.043 57.8977C95.7693 57.7597 95.4428 57.6911 95.0643 57.6911H93.0879L93.1511 57.6208V62.8947L93.0966 62.807H95.0634H95.0652Z" fill="white"/>
<path d="M99.6394 63.0527C99.6334 63.1291 99.6022 63.1933 99.545 63.2463C99.4879 63.2993 99.4229 63.3253 99.351 63.3253C99.261 63.3253 99.1917 63.2993 99.1432 63.2463C99.0947 63.1933 99.0713 63.1291 99.0713 63.0527V57.4454C99.0713 57.369 99.0981 57.3048 99.1527 57.2518C99.2073 57.1989 99.2757 57.1729 99.3606 57.1729C99.4324 57.1729 99.4974 57.1989 99.5546 57.2518C99.6117 57.3048 99.6403 57.369 99.6403 57.4454V63.0527H99.6394Z" fill="white"/>
<path d="M101.634 63.3252C101.544 63.3252 101.47 63.2991 101.413 63.2462C101.356 63.1932 101.327 63.1316 101.327 63.0613V57.4358C101.327 57.3655 101.352 57.3038 101.404 57.2509C101.455 57.1979 101.52 57.1719 101.598 57.1719H104.034C104.377 57.1719 104.684 57.2439 104.955 57.3872C105.226 57.5313 105.438 57.7283 105.592 57.9801C105.745 58.2319 105.822 58.5192 105.822 58.8413C105.822 59.0991 105.774 59.3353 105.677 59.5488C105.581 59.7624 105.446 59.9447 105.271 60.094C105.096 60.2433 104.901 60.3562 104.685 60.4326L104.369 60.3267C104.591 60.3501 104.798 60.4222 104.991 60.542C105.184 60.6618 105.339 60.8258 105.457 61.0342C105.573 61.2425 105.636 61.49 105.642 61.7773C105.648 62.0291 105.661 62.2253 105.683 62.3659C105.703 62.5065 105.735 62.6125 105.777 62.6819C105.819 62.7522 105.873 62.8078 105.94 62.8486C106 62.8842 106.04 62.9337 106.062 62.9979C106.083 63.0621 106.076 63.1238 106.039 63.1828C106.015 63.2297 105.979 63.2636 105.931 63.2835C105.883 63.3044 105.835 63.3139 105.787 63.3139C105.738 63.3139 105.693 63.3026 105.651 63.2783C105.561 63.2314 105.474 63.1585 105.39 63.0587C105.306 62.9588 105.235 62.8121 105.178 62.6194C105.121 62.4258 105.092 62.1567 105.092 61.8112C105.092 61.5829 105.055 61.3971 104.979 61.253C104.904 61.1097 104.808 60.9969 104.691 60.9144C104.574 60.8328 104.444 60.7764 104.303 60.7477C104.162 60.7182 104.028 60.7034 103.901 60.7034H101.799L101.899 60.5715V63.0587C101.899 63.129 101.875 63.1906 101.827 63.2436C101.778 63.2965 101.715 63.3226 101.637 63.3226L101.634 63.3252ZM101.796 60.2138H104.06C104.265 60.1964 104.456 60.1322 104.634 60.0202C104.811 59.9091 104.957 59.752 105.071 59.5497C105.185 59.3474 105.243 59.1148 105.243 58.8508C105.243 58.5166 105.127 58.2397 104.895 58.02C104.664 57.8004 104.362 57.6901 103.989 57.6901H101.832L101.895 57.5756V60.3353L101.796 60.2121V60.2138Z" fill="white"/>
<path d="M107.643 57.1729H110.945C111.023 57.1729 111.09 57.198 111.143 57.2475C111.197 57.297 111.225 57.3604 111.225 57.4368C111.225 57.5132 111.198 57.5748 111.143 57.6217C111.09 57.6686 111.023 57.692 110.945 57.692H107.851L107.941 57.5427V60.0125L107.841 59.8979H110.539C110.617 59.8979 110.683 59.924 110.737 59.9769C110.791 60.0299 110.819 60.0915 110.819 60.1618C110.819 60.2382 110.792 60.2999 110.737 60.3467C110.683 60.3936 110.617 60.4171 110.539 60.4171H107.859L107.941 60.3294V62.8608L107.896 62.8079H110.945C111.023 62.8079 111.09 62.8339 111.143 62.8869C111.197 62.9399 111.225 63.0015 111.225 63.0718C111.225 63.1482 111.198 63.2098 111.143 63.2567C111.09 63.3036 111.023 63.327 110.945 63.327H107.643C107.565 63.327 107.5 63.301 107.449 63.248C107.398 63.1951 107.372 63.1334 107.372 63.0631V57.4376C107.372 57.3673 107.397 57.3057 107.449 57.2527C107.5 57.1998 107.565 57.1737 107.643 57.1737V57.1729Z" fill="white"/>
<path d="M117.108 57.6304C117.18 57.6772 117.223 57.7371 117.235 57.8109C117.247 57.8839 117.226 57.9559 117.172 58.0262C117.129 58.0844 117.077 58.1157 117.014 58.1183C116.951 58.1209 116.886 58.1078 116.82 58.0783C116.597 57.9316 116.354 57.8179 116.089 57.7354C115.824 57.6538 115.544 57.6121 115.25 57.6121C114.883 57.6121 114.541 57.6764 114.226 57.8057C113.91 57.9351 113.635 58.1165 113.401 58.3509C113.166 58.5853 112.984 58.864 112.855 59.1861C112.726 59.5081 112.661 59.8632 112.661 60.2495C112.661 60.6358 112.727 61.01 112.859 61.3347C112.992 61.6602 113.176 61.9398 113.415 62.1742C113.652 62.4086 113.927 62.5874 114.24 62.7107C114.553 62.8339 114.889 62.8956 115.251 62.8956C115.545 62.8956 115.824 62.8548 116.085 62.7723C116.347 62.6907 116.592 62.5787 116.821 62.4381C116.881 62.4025 116.944 62.3895 117.01 62.3981C117.076 62.4068 117.133 62.4407 117.182 62.4988C117.23 62.5631 117.248 62.6334 117.236 62.7098C117.224 62.7862 117.185 62.8418 117.12 62.8765C116.969 62.9702 116.791 63.0597 116.587 63.1447C116.383 63.2298 116.166 63.2958 115.937 63.3427C115.709 63.3896 115.48 63.413 115.251 63.413C114.818 63.413 114.411 63.3366 114.029 63.1847C113.647 63.0328 113.31 62.8166 113.018 62.5388C112.726 62.261 112.496 61.9276 112.328 61.5413C112.159 61.155 112.075 60.7235 112.075 60.2495C112.075 59.7755 112.157 59.3736 112.323 58.9925C112.489 58.6114 112.716 58.2789 113.005 57.995C113.293 57.7111 113.63 57.4897 114.016 57.3317C114.4 57.1737 114.812 57.0947 115.251 57.0947C115.594 57.0947 115.925 57.1416 116.244 57.2354C116.563 57.3291 116.851 57.4611 117.11 57.6312L117.108 57.6304Z" fill="white"/>
<path d="M118.119 57.6738C118.047 57.6738 117.984 57.6503 117.929 57.6034C117.875 57.5566 117.848 57.4975 117.848 57.4281C117.848 57.3517 117.875 57.29 117.929 57.2432C117.983 57.1963 118.046 57.1729 118.119 57.1729H122.405C122.483 57.1729 122.55 57.1963 122.603 57.2432C122.657 57.29 122.685 57.3517 122.685 57.4281C122.685 57.5045 122.658 57.5644 122.603 57.6087C122.549 57.6529 122.483 57.6746 122.405 57.6746H118.119V57.6738ZM120.267 63.3253C120.183 63.3253 120.113 63.2993 120.059 63.2463C120.004 63.1933 119.977 63.1317 119.977 63.0614V57.4628H120.545V63.0614C120.545 63.1317 120.519 63.1933 120.464 63.2463C120.409 63.2993 120.344 63.3253 120.266 63.3253H120.267Z" fill="white"/>
<path d="M64.2217 59.9726C64.5345 59.9726 64.7881 59.7258 64.7881 59.4214C64.7881 59.1169 64.5345 58.8701 64.2217 58.8701C63.9089 58.8701 63.6553 59.1169 63.6553 59.4214C63.6553 59.7258 63.9089 59.9726 64.2217 59.9726Z" fill="url(#paint6_linear_1_24)"/>
<path d="M89.8106 59.9726C90.1234 59.9726 90.377 59.7258 90.377 59.4214C90.377 59.1169 90.1234 58.8701 89.8106 58.8701C89.4977 58.8701 89.2441 59.1169 89.2441 59.4214C89.2441 59.7258 89.4977 59.9726 89.8106 59.9726Z" fill="url(#paint7_linear_1_24)"/>
</g>
<defs>
<linearGradient id="paint0_linear_1_24" x1="10.9385" y1="36.1308" x2="45.9329" y2="10.2403" gradientUnits="userSpaceOnUse">
<stop stop-color="#0AA401"/>
<stop offset="1" stop-color="#BCE70E"/>
</linearGradient>
<linearGradient id="paint1_linear_1_24" x1="89.2755" y1="58.9638" x2="86.3414" y2="35.7456" gradientUnits="userSpaceOnUse">
<stop stop-color="#0AA401"/>
<stop offset="1" stop-color="#BCE70E"/>
</linearGradient>
<linearGradient id="paint2_linear_1_24" x1="97.5329" y1="57.9196" x2="94.598" y2="34.7014" gradientUnits="userSpaceOnUse">
<stop stop-color="#0AA401"/>
<stop offset="1" stop-color="#BCE70E"/>
</linearGradient>
<linearGradient id="paint3_linear_1_24" x1="106.115" y1="56.8372" x2="103.18" y2="33.6181" gradientUnits="userSpaceOnUse">
<stop stop-color="#0AA401"/>
<stop offset="1" stop-color="#BCE70E"/>
</linearGradient>
<linearGradient id="paint4_linear_1_24" x1="119.026" y1="55.2049" x2="116.091" y2="31.9867" gradientUnits="userSpaceOnUse">
<stop stop-color="#0AA401"/>
<stop offset="1" stop-color="#BCE70E"/>
</linearGradient>
<linearGradient id="paint5_linear_1_24" x1="37.7046" y1="32.9105" x2="54.8458" y2="32.9105" gradientUnits="userSpaceOnUse">
<stop stop-color="#0AA401"/>
<stop offset="1" stop-color="#BCE70E"/>
</linearGradient>
<linearGradient id="paint6_linear_1_24" x1="63.7176" y1="59.1696" x2="64.7267" y2="59.6721" gradientUnits="userSpaceOnUse">
<stop stop-color="#0AA401"/>
<stop offset="1" stop-color="#BCE70E"/>
</linearGradient>
<linearGradient id="paint7_linear_1_24" x1="89.3065" y1="59.1696" x2="90.3156" y2="59.6721" gradientUnits="userSpaceOnUse">
<stop stop-color="#0AA401"/>
<stop offset="1" stop-color="#BCE70E"/>
</linearGradient>
<clipPath id="clip0_1_24">
<rect width="126.211" height="64.9994" fill="white"/>
</clipPath>
</defs>
</svg>
